nColumns=19
nRows=100
DataType=double
version=3
OpenSimVersion=4.1
endheader
time	ground_force_1_vx	ground_force_1_vy	ground_force_1_vz	ground_force_1_px	ground_force_1_py	ground_force_1_pz	ground_force_1_mx	ground_force_1_my	ground_force_1_mz	ground_force_2_vx	ground_force_2_vy	ground_force_2_vz	ground_force_2_px	ground_force_2_py	ground_force_2_pz	ground_force_2_mx	ground_force_2_my	ground_force_2_mz
2.36667	50.5997	1760.93	62.1206	0.856193	0	-0.343887	-0	5.87336	-0	0	0	0	-0.000615993	0	-0.00139747	0	0	0
2.375	79.57	1636.99	60.4412	0.835371	0	-0.341221	-0	7.65318	-0	0	0	0	-0.000615976	0	-0.00139745	0	0	0
2.38333	106.061	1482.11	61.5252	0.814797	0	-0.339083	-0	6.15473	-0	0	0	0	-0.000615959	0	-0.00139743	0	0	0
2.39167	132.73	1301.07	61.4717	0.792628	0	-0.338906	-0	4.63663	-0	0	0	0	-0.000615941	0	-0.00139741	0	0	0
2.4	153.866	1102.35	62.5506	0.768986	0	-0.339715	-0	2.02196	-0	0	0	0	-0.000615922	0	-0.00139738	0	0	0
2.40833	166.358	892.335	66.9576	0.742648	0	-0.339692	0	-3.61848	0	0	0	0	-0.000615903	0	-0.00139736	0	0	0
2.41667	174.116	677.978	69.9406	0.709374	0	-0.338344	0	-9.30503	0	0	0	0	-0.000615883	0	-0.00139734	0	0	0
2.425	172.154	475.634	63.8844	0.669827	0	-0.33656	0	-9.23567	0	0	0	0	-0.000615863	0	-0.00139731	0	0	0
2.43333	148.564	304.817	47.8898	0.63527	0	-0.335621	0	-2.33409	0	0	0	0	-0.000615843	0	-0.00139729	0	0	0
2.44167	105.92	177.532	29.4443	0.624038	0	-0.333496	-0	5.52658	-0	0	0	0	-0.000615822	0	-0.00139727	0	0	0
2.45	61.2468	96.8403	16.3088	0.66147	0	-0.31659	-0	7.90293	-0	0	0	0	-0.000615801	0	-0.00139724	0	0	0
2.45833	28.9403	51.9927	9.63693	0.724366	0	-0.270893	-0	4.41883	-0	0	0	0	-0.000615779	0	-0.00139721	0	0	0
2.46667	11.3414	26.6398	5.83788	0.706309	0	-0.207772	0	-0.232197	0	0	0	0	-0.000615756	0	-0.00139719	0	0	0
2.475	3.12413	11.9985	2.58626	-0.000615272	0	-0.00139625	0	0	0	0	0	0	-0.000615734	0	-0.00139716	0	0	0
2.48333	0	0	0	-0.000615249	0	-0.00139622	0	0	0	0	0	0	-0.00061571	0	-0.00139713	0	0	0
2.49167	0	0	0	-0.000615226	0	-0.0013962	0	0	0	0	0	0	-0.000615687	0	-0.00139711	0	0	0
2.5	0	0	0	-0.000615203	0	-0.00139617	0	0	0	0	0	0	-0.000615662	0	-0.00139708	0	0	0
2.50833	0	0	0	-0.000615179	0	-0.00139614	0	0	0	0.941794	10.2257	2.46607	-0.000615638	0	-0.00139705	0	0	0
2.51667	0	0	0	-0.000615154	0	-0.00139612	0	0	0	0	0	0	-0.000615613	0	-0.00139702	0	0	0
2.525	0	0	0	-0.000615129	0	-0.00139609	0	0	0	0	0	0	-0.000615587	0	-0.00139699	0	0	0
2.53333	0	0	0	-0.000615104	0	-0.00139606	0	0	0	0	0	0	-0.000615561	0	-0.00139696	0	0	0
2.54167	0	0	0	-0.000615079	0	-0.00139603	0	0	0	0	0	0	-0.000615535	0	-0.00139693	0	0	0
2.55	0	0	0	-0.000615052	0	-0.001396	0	0	0	0	0	0	-0.000615508	0	-0.00139689	0	0	0
2.55833	0	0	0	-0.000615026	0	-0.00139597	0	0	0	0	0	0	-0.000615481	0	-0.00139686	0	0	0
2.56667	0	0	0	-0.000614999	0	-0.00139594	0	0	0	-0.272361	15.0206	-3.97071	1.12001	0	-0.209934	0	-5.00962	0
2.575	0	0	0	-0.000614972	0	-0.00139591	0	0	0	-5.09754	36.9395	-8.03955	1.06369	0	-0.291079	0	-2.65025	0
2.58333	0	0	0	-0.000614944	0	-0.00139588	0	0	0	-14.1779	102.566	-13.726	1.08371	0	-0.325887	-0	0.122423	-0
2.59167	0	0	0	-0.000614916	0	-0.00139584	0	0	0	-28.9362	260.132	-20.225	1.10078	0	-0.334412	-0	0.313966	-0
2.6	0	0	0	-0.000614888	0	-0.00139581	0	0	0	-52.1691	547.696	-25.0942	1.10206	0	-0.332638	0	-4.56122	0
2.60833	0	0	0	-0.000614859	0	-0.00139578	0	0	0	-87.66	919.271	-27.6269	1.09514	0	-0.327879	0	-11.6595	0
2.61667	0	0	0	-0.00061483	0	-0.00139575	0	0	0	-131.581	1225.07	-32.4097	1.08418	0	-0.323497	0	-12.3268	0
2.625	0	0	0	-0.0006148	0	-0.00139571	0	0	0	-171.433	1359.48	-45.6604	1.06999	0	-0.321972	0	-0.55586	0
2.63333	0	0	0	-0.00061477	0	-0.00139568	0	0	0	-197.848	1381.11	-64.1193	1.05187	0	-0.324676	-0	17.0376	-0
2.64167	0	0	0	-0.00061474	0	-0.00139564	0	0	0	-207.881	1410.27	-72.1063	1.02948	0	-0.328791	-0	24.1762	-0
2.65	0	0	0	-0.000614709	0	-0.00139561	0	0	0	-198.247	1499.17	-57.9609	1.00422	0	-0.329812	-0	12.0675	-0
2.65833	0	0	0	-0.000614678	0	-0.00139557	0	0	0	-167.158	1621.35	-30.7015	0.977629	0	-0.328543	0	-8.85263	0
2.66667	0	0	0	-0.000614647	0	-0.00139554	0	0	0	-121.184	1722.55	-11.1593	0.951169	0	-0.328936	0	-19.4608	0
2.675	0	0	0	-0.000614615	0	-0.0013955	0	0	0	-72.2642	1772.17	-7.38092	0.925628	0	-0.331957	0	-13.4904	0
2.68333	0	0	0	-0.000614583	0	-0.00139547	0	0	0	-30.1764	1776.08	-7.73783	0.901121	0	-0.33513	0	-3.08253	0
2.69167	0	0	0	-0.00061455	0	-0.00139543	0	0	0	1.42777	1751.79	0.104775	0.877687	0	-0.336147	0	-2.02769	0
2.7	0	0	0	-0.000614518	0	-0.00139539	0	0	0	28.9721	1700.87	12.1081	0.855123	0	-0.33591	0	-9.45574	0
2.70833	0	0	0	-0.000614485	0	-0.00139535	0	0	0	58.7755	1613.5	14.9989	0.832649	0	-0.336822	0	-14.1252	0
2.71667	0	0	0	-0.000614451	0	-0.00139532	0	0	0	89.5244	1490.93	4.73238	0.809642	0	-0.339019	0	-10.625	0
2.725	0	0	0	-0.000614417	0	-0.00139528	0	0	0	115.779	1345.61	-9.84523	0.786973	0	-0.340168	0	-4.73951	0
2.73333	0	0	0	-0.000614383	0	-0.00139524	0	0	0	135.293	1183.6	-20.2886	0.765426	0	-0.33843	0	-3.01242	0
2.74167	0	0	0	-0.000614349	0	-0.0013952	0	0	0	150.494	998.978	-27.9092	0.742862	0	-0.334849	0	-3.35085	0
2.75	0	0	0	-0.000614315	0	-0.00139516	0	0	0	161.634	787.496	-37.4317	0.713013	0	-0.332654	-0	0.396507	-0
2.75833	0	0	0	-0.00061428	0	-0.00139512	0	0	0	163.078	565.628	-46.6472	0.670656	0	-0.334124	-0	7.86826	-0
2.76667	0	0	0	-0.000614244	0	-0.00139508	0	0	0	146.494	369.424	-47.4642	0.623773	0	-0.337017	-0	11.2598	-0
2.775	0	0	0	-0.000614209	0	-0.00139504	0	0	0	112.7	224.939	-36.3702	0.59667	0	-0.334077	-0	5.35184	-0
2.78333	0	0	0	-0.000614173	0	-0.001395	0	0	0	73.0499	131.432	-19.9654	0.618577	0	-0.318192	0	-5.21993	0
2.79167	0	0	0	-0.000614137	0	-0.00139496	0	0	0	39.498	71.3841	-8.31351	0.689221	0	-0.293584	0	-11.0844	0
2.8	0	0	0	-0.000614101	0	-0.00139492	0	0	0	18.1273	32.5723	-4.68151	0.765257	0	-0.268636	0	-8.82117	0
2.80833	0	0	0	-0.000614064	0	-0.00139488	0	0	0	7.15515	12.9237	-4.12664	-0.000614493	0	-0.00139569	0	0	0
2.81667	0	0	0	-0.000614028	0	-0.00139484	0	0	0	0	0	0	-0.000614455	0	-0.00139565	0	0	0
2.825	0	0	0	-0.000613991	0	-0.00139479	0	0	0	0	0	0	-0.000614417	0	-0.0013956	0	0	0
2.83333	0	0	0	-0.000613953	0	-0.00139475	0	0	0	0	0	0	-0.000614378	0	-0.00139556	0	0	0
2.84167	0	0	0	-0.000613916	0	-0.00139471	0	0	0	0	0	0	-0.00061434	0	-0.00139551	0	0	0
2.85	0	0	0	-0.000613878	0	-0.00139467	0	0	0	0	0	0	-0.000614301	0	-0.00139547	0	0	0
2.85833	0	0	0	-0.00061384	0	-0.00139462	0	0	0	0	0	0	-0.000614262	0	-0.00139542	0	0	0
2.86667	0.117671	10.0118	1.82679	-0.000613802	0	-0.00139458	0	0	0	0	0	0	-0.000614223	0	-0.00139538	0	0	0
2.875	0	0	0	-0.000613763	0	-0.00139454	0	0	0	0	0	0	-0.000614183	0	-0.00139533	0	0	0
2.88333	0	0	0	-0.000613725	0	-0.00139449	0	0	0	0	0	0	-0.000614144	0	-0.00139528	0	0	0
2.89167	-0.20529	11.5605	-1.82249	-0.000613686	0	-0.00139445	0	0	0	0	0	0	-0.000614104	0	-0.00139523	0	0	0
2.9	-2.96332	30.6102	-3.30986	1.10036	0	-0.237769	0	-1.72362	0	0	0	0	-0.000614064	0	-0.00139519	0	0	0
2.90833	-7.63381	87.6413	-4.54396	1.11323	0	-0.282762	-0	5.40413	-0	0	0	0	-0.000614023	0	-0.00139514	0	0	0
2.91667	-12.4389	217.837	-4.60731	1.1044	0	-0.302874	-0	13.8323	-0	0	0	0	-0.000613983	0	-0.00139509	0	0	0
2.925	-17.6251	447.257	1.28234	1.09277	0	-0.310653	-0	16.0043	-0	0	0	0	-0.000613942	0	-0.00139504	0	0	0
2.93333	-33.5709	743.664	17.9789	1.08232	0	-0.312716	-0	5.86041	-0	0	0	0	-0.000613901	0	-0.001395	0	0	0
2.94167	-73.6034	1003.05	42.4165	1.07271	0	-0.31258	0	-12.5205	0	0	0	0	-0.00061386	0	-0.00139495	0	0	0
2.95	-134.059	1146.54	61.3362	1.06212	0	-0.312329	0	-25.3392	0	0	0	0	-0.000613819	0	-0.0013949	0	0	0
2.95833	-190.69	1213.97	61.9185	1.04703	0	-0.313115	0	-21.5989	0	0	0	0	-0.000613778	0	-0.00139485	0	0	0
2.96667	-216.622	1297.53	45.964	1.02367	0	-0.314209	0	-5.12088	0	0	0	0	-0.000613737	0	-0.0013948	0	0	0
2.975	-200.178	1432.19	28.7048	0.993241	0	-0.313504	-0	8.92165	-0	0	0	0	-0.000613695	0	-0.00139475	0	0	0
2.98333	-152.837	1587.69	21.5986	0.961302	0	-0.31069	-0	10.1483	-0	0	0	0	-0.000613653	0	-0.0013947	0	0	0
2.99167	-95.6928	1713.36	21.1962	0.931801	0	-0.307731	-0	2.73078	-0	0	0	0	-0.000613611	0	-0.00139465	0	0	0
3	-40.9997	1775.92	17.7274	0.905	0	-0.306149	0	-2.20662	0	0	0	0	-0.000613569	0	-0.0013946	0	0	0
3.00833	6.28693	1773.24	9.65648	0.8799	0	-0.305484	0	-0.315414	0	0	0	0	-0.000613527	0	-0.00139455	0	0	0
3.01667	43.6699	1722.92	4.28993	0.855979	0	-0.304225	-0	3.47385	-0	0	0	0	-0.000613485	0	-0.0013945	0	0	0
3.025	72.5366	1638.37	6.28205	0.833064	0	-0.301827	-0	4.09563	-0	0	0	0	-0.000613443	0	-0.00139445	0	0	0
3.03333	98.2256	1521.2	12.109	0.81009	0	-0.299511	-0	2.66092	-0	0	0	0	-0.000613401	0	-0.0013944	0	0	0
3.04167	124.989	1371.87	17.2003	0.785185	0	-0.298884	-0	2.3415	-0	0	0	0	-0.000613358	0	-0.00139435	0	0	0
3.05	155.301	1195.96	22.9569	0.756946	0	-0.299868	-0	2.24645	-0	0	0	0	-0.000613315	0	-0.0013943	0	0	0
3.05833	189.357	1001.68	32.7169	0.72456	0	-0.300706	0	-0.919855	0	0	0	0	-0.000613273	0	-0.00139425	0	0	0
3.06667	219.389	799.584	43.9396	0.689145	0	-0.300276	0	-6.70844	0	0	0	0	-0.00061323	0	-0.0013942	0	0	0
3.075	226.728	605.191	49.2625	0.655733	0	-0.299361	0	-10.1973	0	0	0	0	-0.000613187	0	-0.00139415	0	0	0
3.08333	200.888	432.742	44.8909	0.628886	0	-0.299214	0	-7.9273	0	0	0	0	-0.000613145	0	-0.0013941	0	0	0
3.09167	152.784	290.739	34.3832	0.610885	0	-0.298765	0	-2.08599	0	0	0	0	-0.000613102	0	-0.00139405	0	0	0
3.1	101.922	181.902	23.8284	0.601414	0	-0.294239	-0	2.36163	-0	0	0	0	-0.000613059	0	-0.001394	0	0	0
3.10833	60.307	103.763	15.931	0.59569	0	-0.282106	-0	3.09431	-0	0	0	0	-0.000613016	0	-0.00139395	0	0	0
3.11667	30.6243	51.7716	9.83041	0.601604	0	-0.262464	-0	1.57936	-0	0	0	0	-0.000612973	0	-0.0013939	0	0	0
3.125	12.3793	21.6453	4.80953	0.692003	0	-0.234306	0	-0.114923	0	0	0	0	-0.00061293	0	-0.00139385	0	0	0
3.13333	0	0	0	-0.000612502	0	-0.0013931	0	0	0	0	0	0	-0.000612887	0	-0.0013938	0	0	0
3.14167	0	0	0	-0.00061246	0	-0.00139306	0	0	0	0	0	0	-0.000612844	0	-0.00139375	0	0	0
3.15	0	0	0	-0.000612418	0	-0.00139301	0	0	0	1.45923	10.3982	2.73683	-0.000612801	0	-0.00139369	0	0	0
3.15833	0	0	0	-0.000612376	0	-0.00139296	0	0	0	0	0	0	-0.000612758	0	-0.00139364	0	0	0
3.16667	0	0	0	-0.000612335	0	-0.00139291	0	0	0	0	0	0	-0.000612715	0	-0.00139359	0	0	0
3.175	0	0	0	-0.000612293	0	-0.00139287	0	0	0	0	0	0	-0.000612672	0	-0.00139354	0	0	0
3.18333	0	0	0	-0.000612251	0	-0.00139282	0	0	0	0	0	0	-0.000612629	0	-0.00139349	0	0	0
3.19167	0	0	0	-0.000612209	0	-0.00139277	0	0	0	0	0	0	-0.000612586	0	-0.00139344	0	0	0
